<?xml version="1.0" standalone="no"?>
<!DOCTYPE svg PUBLIC "-//W3C//DTD SVG 20010904//EN"
 "http://www.w3.org/TR/2001/REC-SVG-20010904/DTD/svg10.dtd">
<svg version="1.0" xmlns="http://www.w3.org/2000/svg"
 width="361.000000pt" height="361.000000pt" viewBox="0 0 361.000000 361.000000"
 preserveAspectRatio="xMidYMid meet">
<metadata>
Created by potrace 1.14, written by Peter Selinger 2001-2017
</metadata>
<g transform="translate(0.000000,361.000000) scale(0.100000,-0.100000)"
fill="#000000" stroke="none">
<path d="M1702 3109 c-317 -49 -580 -302 -646 -622 -13 -63 -16 -156 -16 -540
0 -496 2 -468 -50 -582 -113 -247 -135 -357 -89 -452 27 -56 56 -78 141 -105
67 -22 70 -24 99 -79 88 -164 246 -294 443 -362 85 -29 100 -31 236 -32 167 0
224 13 359 79 216 106 368 306 416 545 14 65 15 182 13 801 l-3 725 -24 70
c-40 121 -98 220 -179 307 -114 120 -237 195 -383 233 -76 20 -235 27 -317 14z
m653 -239 c10 -11 16 -20 13 -20 -3 0 -13 9 -23 20 -10 11 -16 20 -13 20 3 0
13 -9 23 -20z m-519 -11 c10 -17 -13 -36 -27 -22 -12 12 -4 33 11 33 5 0 12
-5 16 -11z m254 -34 c-5 -6 -7 -14 -4 -17 2 -3 -8 -5 -23 -5 -15 0 -22 2 -15
4 10 4 10 8 1 19 -8 10 -8 14 0 14 6 0 11 7 11 17 0 14 2 14 20 -2 14 -12 17
-22 10 -30z m170 -5 c8 -5 11 -10 5 -10 -5 0 -17 5 -25 10 -8 5 -10 10 -5 10
6 0 17 -5 25 -10z m13 -34 c19 -13 37 -23 39 -21 2 2 5 -4 6 -13 1 -9 4 -34 8
-54 4 -28 1 -48 -14 -77 -11 -21 -19 -41 -17 -43 2 -2 -4 -5 -13 -6 -9 -1 -34
-4 -54 -8 -40 -7 -88 1 -88 14 0 5 16 16 35 25 65 31 85 127 35 172 -11 10
-20 22 -20 27 0 17 48 7 83 -16z m-1041 -21 c0 -5 -5 -11 -11 -13 -6 -2 -11 4
-11 13 0 9 5 15 11 13 6 -2 11 -8 11 -13z m205 -337 c-3 -8 -6 -5 -6 6 -1 11
2 17 5 13 3 -3 4 -12 1 -19z m728 -27 c3 -5 1 -13 -5 -16 -15 -9 -43 3 -35 15
8 13 32 13 40 1z m-1008 -97 c14 -14 14 -17 0 -31 -14 -14 -17 -14 -32 0 -13
14 -14 19 -3 31 16 19 16 19 35 0z m382 -20 c2 -2 -4 -10 -12 -19 -26 -25 -29
-50 -11 -96 33 -88 29 -128 -12 -129 -26 0 -54 178 -38 238 6 20 11 22 38 16
17 -3 33 -8 35 -10z m159 -30 c2 -1 -7 -17 -19 -34 l-24 -31 -9 28 c-5 15 -13
33 -18 40 -7 9 0 11 29 6 21 -3 40 -7 41 -9z m707 -8 c44 1 55 -5 55 -31 0
-28 -17 -35 -85 -35 -52 0 -77 12 -55 25 8 5 7 11 -1 21 -12 15 -7 18 25 14
14 -1 17 3 12 17 -5 15 -4 16 6 3 7 -8 27 -15 43 -14z m-806 5 c13 -9 41 -72
43 -98 1 -7 7 -13 14 -13 16 0 27 17 14 22 -5 1 7 22 28 46 l37 43 134 -28
134 -28 18 -52 c18 -52 17 -53 -3 -64 -11 -6 -29 -9 -39 -6 -10 3 -19 1 -19
-4 0 -14 -87 -60 -142 -74 -28 -8 -60 -22 -70 -32 -17 -17 -14 -18 85 -15 56
2 115 7 131 13 16 5 31 7 33 6 2 -2 0 -21 -5 -43 -7 -33 -12 -39 -42 -46 -19
-5 -73 -9 -120 -10 -93 -3 -113 4 -169 56 l-34 31 23 -34 c27 -39 90 -70 143
-71 33 0 37 -3 37 -26 0 -27 -1 -27 -59 -21 -46 4 -83 17 -161 58 -55 29 -106
59 -112 66 -12 15 6 93 22 93 5 0 21 11 36 25 15 14 22 25 15 25 -6 0 -11 11
-11 24 0 13 -7 40 -15 59 -8 20 -15 47 -15 60 0 40 35 59 69 38z m798 -100
c-3 -13 1 -21 15 -24 14 -4 19 -12 16 -29 -2 -18 -10 -24 -36 -26 -29 -3 -33
-1 -28 15 5 16 -1 18 -55 19 -65 1 -85 14 -68 46 8 15 23 18 86 18 69 0 75 -2
70 -19z m-1097 -127 c0 -20 -18 -17 -29 5 -9 16 -8 18 9 14 11 -3 20 -12 20
-19z m1120 6 c0 -5 -8 -10 -19 -10 -10 0 -33 -3 -50 -6 -24 -5 -31 -3 -31 10
0 13 11 16 50 16 28 0 50 -4 50 -10z m-120 -15 c0 -8 -7 -15 -15 -15 -9 0 -12
6 -9 15 4 8 10 15 15 15 5 0 9 -7 9 -15z m126 -25 c-38 -12 -173 -25 -165 -16
7 8 111 23 159 24 l35 0 -29 -8z m-959 -22 c-3 -8 -6 -5 -6 6 -1 11 2 17 5 13
3 -3 4 -12 1 -19z m923 -23 c-13 -16 -90 -21 -104 -7 -7 6 104 32 113 25 2 -1
-2 -9 -9 -18z m65 -4 c-17 -10 -39 -30 -48 -45 -10 -15 -27 -26 -40 -26 -19 0
-16 6 25 45 28 27 56 45 70 45 21 0 21 -1 -7 -19z m-150 -34 c18 -4 18 -5 -1
-6 -12 0 -32 8 -45 20 l-24 21 25 -15 c14 -8 35 -17 45 -20z m210 4 c9 -29
-38 -113 -86 -154 -27 -23 -44 -48 -48 -69 l-7 -33 -69 3 c-39 2 -71 5 -73 7
-10 10 11 43 24 38 7 -3 14 0 14 6 0 6 -4 11 -10 11 -19 0 -43 66 -44 121 -1
32 2 60 6 64 14 14 98 -52 111 -87 2 -7 7 -10 11 -6 4 3 3 16 -4 27 -6 12 -7
21 -3 21 15 0 28 -15 28 -30 0 -27 52 -24 81 5 32 32 23 47 -9 17 -22 -21 -47
-29 -47 -16 0 4 16 27 36 50 39 48 78 59 89 25z m-1060 -237 c28 -4 64 -9 80
-11 65 -5 105 -15 98 -26 -3 -5 1 -15 11 -22 57 -42 140 -124 165 -164 16 -25
36 -78 45 -117 14 -64 49 -355 43 -359 -1 -1 -24 -7 -50 -14 -49 -12 -117 -6
-117 10 0 5 -9 9 -20 9 -24 0 -58 31 -52 48 2 7 -2 12 -8 12 -7 0 -10 6 -7 13
6 16 -61 21 -79 6 -10 -8 -26 -7 -61 5 -26 8 -66 18 -88 21 -22 4 -47 9 -55
12 -16 7 -26 10 -37 12 -30 5 -32 18 -13 70 10 29 26 64 35 77 18 29 17 105
-2 111 -7 3 -15 -8 -18 -24 -6 -29 -18 -66 -64 -190 -26 -72 -24 -96 7 -76 12
8 24 7 42 -2 14 -7 43 -15 65 -19 22 -4 69 -14 103 -23 63 -16 64 -17 58 -46
-3 -16 -6 -37 -6 -46 -1 -9 -7 -3 -15 14 -14 29 -14 24 1 -37 4 -17 2 -28 -4
-28 -6 0 -10 -9 -9 -20 1 -15 12 -23 40 -31 22 -6 45 -8 53 -5 8 3 14 1 14 -4
0 -11 -12 -13 -50 -10 -14 1 -22 -1 -19 -4 3 -3 18 -7 32 -8 15 -1 27 -8 27
-14 0 -25 -13 -44 -29 -44 -14 0 -14 2 -1 11 12 9 12 10 -3 5 -22 -7 -67 3
-67 14 0 5 10 11 23 13 12 2 5 3 -15 1 -21 -2 -66 4 -100 15 -35 10 -85 24
-113 30 -27 7 -52 16 -55 21 -3 4 -18 10 -35 13 -40 7 -128 37 -139 48 -6 5
-16 9 -23 9 -7 0 -24 10 -38 21 -31 28 -42 94 -25 155 7 24 14 55 15 67 1 12
3 27 4 32 1 13 105 125 115 125 5 0 19 9 33 19 14 11 32 17 41 14 9 -3 14 -2
10 2 -8 8 43 45 62 45 6 0 10 -8 11 -17 0 -10 5 -5 11 12 6 17 16 37 23 45 7
8 17 29 23 45 l10 30 11 -25 c12 -26 10 -3 -4 35 l-7 20 17 -20 c9 -11 18 -30
22 -42 6 -26 28 -30 37 -7 3 8 2 13 -3 9 -5 -3 -12 9 -16 26 -16 70 -65 129
-134 160 -32 14 -39 14 -58 1 -13 -8 -23 -11 -23 -8 0 4 27 24 61 46 l61 39
51 -38 c35 -26 68 -41 102 -47z m-220 -14 c3 -6 -1 -7 -9 -4 -18 7 -21 14 -7
14 6 0 13 -4 16 -10z m392 4 c-3 -3 -12 -4 -19 -1 -8 3 -5 6 6 6 11 1 17 -2
13 -5z m550 -30 c-3 -3 -12 -4 -19 -1 -8 3 -5 6 6 6 11 1 17 -2 13 -5z m223
-4 c0 -6 -38 -10 -94 -10 -53 0 -98 4 -101 10 -4 6 30 10 94 10 61 0 101 -4
101 -10z m-1095 -20 c3 -6 -1 -7 -9 -4 -9 3 -16 2 -16 -4 0 -6 6 -13 13 -15 9
-4 9 -6 0 -6 -15 -1 -26 16 -18 29 8 13 22 13 30 0z m707 -11 c-9 -24 -26 -27
-30 -5 -2 8 5 16 15 19 10 3 19 5 20 6 1 0 -1 -8 -5 -20z m343 -9 c-8 -13 1
-13 25 2 12 8 22 9 28 3 6 -8 -4 -545 -11 -552 -4 -3 -337 16 -394 22 l-53 6
0 130 c0 145 1 147 66 103 43 -29 55 -44 48 -56 -3 -4 -1 -8 5 -8 6 0 13 -16
17 -35 9 -51 28 -38 36 26 7 60 41 154 54 154 5 0 8 25 7 55 l-2 55 74 -2 c73
-2 73 -2 89 30 8 18 16 27 16 21 0 -6 9 -21 20 -34 l20 -23 0 51 c0 29 -4 52
-8 52 -4 0 -6 -16 -4 -36 3 -27 1 -35 -8 -29 -7 4 -9 18 -6 34 4 14 3 22 -1
16 -11 -14 -33 -17 -33 -5 0 6 -10 15 -22 20 -21 8 -20 9 10 9 20 1 31 -3 27
-9z m-40 -45 c0 -18 -7 -20 -75 -20 -70 0 -75 1 -78 22 -3 22 -1 23 75 20 70
-2 78 -4 78 -22z m-1249 -97 c-18 -26 -22 -17 -5 14 6 11 13 17 16 15 3 -3 -2
-16 -11 -29z m549 -420 c2 -7 -4 -47 -13 -88 -16 -64 -21 -75 -38 -72 -10 2
-20 5 -21 6 -2 2 25 131 32 154 3 6 11 12 20 12 9 0 18 -6 20 -12z m342 -40
c-3 -8 -6 -5 -6 6 -1 11 2 17 5 13 3 -3 4 -12 1 -19z m617 -15 c-26 -120 -95
-273 -123 -273 -9 0 -26 3 -38 6 -22 6 -23 10 -23 133 l0 126 78 16 c114 24
113 24 106 -8z m-937 -25 c-3 -8 -6 -5 -6 6 -1 11 2 17 5 13 3 -3 4 -12 1 -19z
m723 -108 c0 -109 -2 -130 -15 -130 -13 0 -15 21 -15 130 0 109 2 130 15 130
13 0 15 -21 15 -130z m-660 108 c0 -7 -7 -52 -16 -100 -15 -83 -18 -88 -41
-88 -16 0 -23 5 -21 13 3 6 13 51 24 100 15 70 22 87 36 87 10 0 18 -6 18 -12z
m368 -15 c34 -6 43 -27 16 -37 -9 -3 -45 -6 -80 -6 -35 0 -64 -4 -64 -8 0 -4
14 -30 30 -56 21 -33 43 -53 70 -64 71 -30 35 -56 -41 -29 -62 23 -71 21 -31
-5 21 -13 51 -21 78 -22 38 -1 42 -3 27 -13 -25 -19 -73 -16 -118 7 -22 11
-41 20 -43 20 -10 0 14 -24 42 -41 27 -17 29 -19 9 -19 -12 0 -38 14 -58 31
-20 18 -35 25 -35 18 0 -7 -19 6 -43 29 -23 23 -52 42 -62 42 -11 0 -31 3 -43
7 -22 5 -23 9 -17 52 13 95 12 93 64 87 27 -3 69 0 101 9 52 13 113 13 198 -2z
m142 -93 l0 -70 -69 0 c-48 0 -74 5 -84 15 -8 8 -17 12 -20 9 -5 -6 -57 53
-57 65 0 5 11 6 25 3 29 -5 119 7 111 15 -13 14 19 33 55 33 l39 0 0 -70z
m-1230 40 c0 -5 -2 -10 -4 -10 -3 0 -8 5 -11 10 -3 6 -1 10 4 10 6 0 11 -4 11
-10z m637 -22 c-3 -8 -6 -5 -6 6 -1 11 2 17 5 13 3 -3 4 -12 1 -19z m-394 -55
c-7 -2 -19 -2 -25 0 -7 3 -2 5 12 5 14 0 19 -2 13 -5z m110 -20 c-7 -2 -21 -2
-30 0 -10 3 -4 5 12 5 17 0 24 -2 18 -5z m69 -54 c65 -6 115 -15 113 -19 -3
-5 14 -6 37 -3 23 4 39 2 36 -3 -4 -5 7 -9 23 -10 16 -1 29 3 29 8 0 5 -4 6
-10 3 -5 -3 -10 1 -10 9 0 21 21 31 31 15 7 -12 9 -11 10 1 0 9 4 7 11 -7 6
-13 16 -23 22 -23 6 0 5 5 -2 12 -17 17 -15 26 6 24 9 0 23 -12 29 -26 11 -21
12 -21 7 -3 -4 18 0 22 23 25 25 3 73 -27 73 -45 0 -4 -100 -8 -222 -9 l-223
-3 -6 -70 c-6 -79 -3 -96 15 -89 7 3 13 -2 13 -11 0 -20 -4 -19 -40 11 -30 25
-48 84 -26 84 5 0 9 5 9 11 0 15 -18 2 -31 -23 -9 -16 -8 -19 2 -13 8 6 10 4
4 -5 -6 -9 -20 0 -53 36 -41 46 -112 144 -112 156 0 3 28 0 63 -8 34 -7 115
-18 179 -25z m507 -226 l2 -143 -45 0 -46 0 0 86 c0 77 2 88 23 105 12 10 16
18 10 19 -9 0 -13 18 -13 54 l0 53 33 -16 34 -16 2 -142z m-269 82 c7 -18 3
-20 -39 -21 -25 0 -38 1 -28 3 9 3 17 13 17 24 0 27 40 22 50 -6z m704 -4 c3
-4 -7 -19 -22 -32 l-27 -24 23 26 c12 14 19 29 15 32 -3 4 -4 7 0 7 3 0 8 -4
11 -9z m-949 -41 c3 -5 1 -10 -4 -10 -6 0 -11 5 -11 10 0 6 2 10 4 10 3 0 8
-4 11 -10z m840 -60 c-3 -5 -12 -10 -18 -10 -7 0 -6 4 3 10 19 12 23 12 15 0z"/>
<path d="M1546 2232 c-3 -5 6 -9 20 -9 14 0 32 -9 39 -19 14 -18 14 -17 6 6
-8 26 -53 41 -65 22z"/>
<path d="M1300 1726 c0 -9 5 -16 10 -16 6 0 10 4 10 9 0 6 -4 13 -10 16 -5 3
-10 -1 -10 -9z"/>
<path d="M1265 1699 c36 -11 60 -28 68 -49 4 -12 6 -11 6 3 1 20 -55 57 -84
56 -14 -1 -11 -4 10 -10z"/>
<path d="M1410 1650 c0 -5 7 -7 15 -4 8 4 15 8 15 10 0 2 -7 4 -15 4 -8 0 -15
-4 -15 -10z"/>
<path d="M1390 1621 c0 -6 5 -13 10 -16 6 -3 10 1 10 9 0 9 -4 16 -10 16 -5 0
-10 -4 -10 -9z"/>
<path d="M1406 1573 c-6 -14 -5 -15 5 -6 7 7 10 15 7 18 -3 3 -9 -2 -12 -12z"/>
<path d="M1628 1583 c6 -2 18 -2 25 0 6 3 1 5 -13 5 -14 0 -19 -2 -12 -5z"/>
<path d="M1675 1550 c3 -5 8 -10 11 -10 2 0 4 5 4 10 0 6 -5 10 -11 10 -5 0
-7 -4 -4 -10z"/>
<path d="M1411 1534 c0 -11 3 -14 6 -6 3 7 2 16 -1 19 -3 4 -6 -2 -5 -13z"/>
<path d="M1734 1498 c-4 -7 -4 -10 1 -6 4 4 15 2 24 -5 14 -11 14 -10 2 6 -16
20 -18 21 -27 5z"/>
<path d="M1350 1466 c0 -2 7 -9 15 -16 9 -7 15 -8 15 -2 0 5 -7 12 -15 16 -8
3 -15 4 -15 2z"/>
<path d="M1751 1444 c0 -11 3 -14 6 -6 3 7 2 16 -1 19 -3 4 -6 -2 -5 -13z"/>
<path d="M1780 1440 c0 -5 5 -10 11 -10 5 0 7 5 4 10 -3 6 -8 10 -11 10 -2 0
-4 -4 -4 -10z"/>
<path d="M1301 1383 c0 -25 1 -26 9 -8 12 27 12 35 0 35 -5 0 -10 -12 -9 -27z"/>
<path d="M1337 1399 c7 -7 15 -10 18 -7 3 3 -2 9 -12 12 -14 6 -15 5 -6 -5z"/>
<path d="M1402 1350 c0 -14 2 -19 5 -12 2 6 2 18 0 25 -3 6 -5 1 -5 -13z"/>
<path d="M1820 1361 c0 -6 5 -13 10 -16 6 -3 10 1 10 9 0 9 -4 16 -10 16 -5 0
-10 -4 -10 -9z"/>
<path d="M1265 1319 c-4 -6 -5 -12 -2 -15 2 -3 7 2 10 11 7 17 1 20 -8 4z"/>
<path d="M1292 1306 c-7 -16 -8 -26 -1 -26 12 0 22 25 17 41 -2 6 -9 0 -16
-15z"/>
<path d="M1380 1317 c0 -1 -4 -18 -10 -37 -9 -32 -8 -33 5 -16 14 19 21 56 10
56 -3 0 -5 -1 -5 -3z"/>
<path d="M1270 1254 c0 -8 5 -12 10 -9 6 4 8 11 5 16 -9 14 -15 11 -15 -7z"/>
<path d="M1842 1215 c0 -16 2 -22 5 -12 2 9 2 23 0 30 -3 6 -5 -1 -5 -18z"/>
<path d="M1861 1184 c0 -11 3 -14 6 -6 3 7 2 16 -1 19 -3 4 -6 -2 -5 -13z"/>
<path d="M1181 1154 c0 -11 3 -14 6 -6 3 7 2 16 -1 19 -3 4 -6 -2 -5 -13z"/>
<path d="M1201 1154 c0 -11 3 -14 6 -6 3 7 2 16 -1 19 -3 4 -6 -2 -5 -13z"/>
<path d="M1227 1151 c-4 -17 -3 -21 5 -13 5 5 8 16 6 23 -3 8 -7 3 -11 -10z"/>
<path d="M1842 1150 c0 -14 2 -19 5 -12 2 6 2 18 0 25 -3 6 -5 1 -5 -13z"/>
<path d="M1863 1125 c0 -22 2 -30 4 -17 2 12 2 30 0 40 -3 9 -5 -1 -4 -23z"/>
<path d="M1313 1140 c2 -8 12 -15 23 -16 10 0 28 -4 39 -8 35 -14 45 -16 45
-7 0 10 -71 32 -83 24 -5 -3 -14 1 -19 8 -8 12 -9 11 -5 -1z"/>
<path d="M1210 1080 c0 -12 29 -45 35 -39 2 2 -5 15 -16 28 -10 13 -19 18 -19
11z"/>
<path d="M1821 1074 c0 -11 3 -14 6 -6 3 7 2 16 -1 19 -3 4 -6 -2 -5 -13z"/>
<path d="M1838 1040 c-1 -28 0 -50 5 -50 4 0 7 23 7 50 0 65 -7 65 -12 0z"/>
<path d="M1185 1050 c3 -5 8 -10 11 -10 2 0 4 5 4 10 0 6 -5 10 -11 10 -5 0
-7 -4 -4 -10z"/>
<path d="M1260 1050 c0 -15 62 -40 97 -39 32 1 24 5 -29 14 -21 3 -44 13 -53
21 -9 9 -15 11 -15 4z"/>
<path d="M1298 1053 c7 -3 16 -2 19 1 4 3 -2 6 -13 5 -11 0 -14 -3 -6 -6z"/>
<path d="M1873 1025 c0 -22 2 -30 4 -17 2 12 2 30 0 40 -3 9 -5 -1 -4 -23z"/>
<path d="M1330 1040 c0 -5 5 -10 11 -10 5 0 7 5 4 10 -3 6 -8 10 -11 10 -2 0
-4 -4 -4 -10z"/>
<path d="M1380 1032 c22 -13 87 -24 75 -13 -6 5 -28 11 -50 15 -25 4 -34 3
-25 -2z"/>
<path d="M1210 1020 c0 -5 5 -10 11 -10 5 0 7 5 4 10 -3 6 -8 10 -11 10 -2 0
-4 -4 -4 -10z"/>
<path d="M1502 1006 c7 -8 15 -12 17 -11 5 6 -10 25 -20 25 -5 0 -4 -6 3 -14z"/>
<path d="M1689 997 c7 -7 14 -8 21 -1 6 6 2 10 -12 11 -16 2 -18 -1 -9 -10z"/>
<path d="M1737 989 c7 -7 15 -10 18 -7 3 3 -2 9 -12 12 -14 6 -15 5 -6 -5z"/>
<path d="M1508 823 c7 -3 16 -2 19 1 4 3 -2 6 -13 5 -11 0 -14 -3 -6 -6z"/>
<path d="M2347 1507 c-3 -8 3 -14 16 -15 12 0 17 2 12 6 -6 4 -13 11 -16 15
-4 4 -9 2 -12 -6z"/>
<path d="M2200 1389 c0 -5 5 -7 10 -4 6 3 10 8 10 11 0 2 -4 4 -10 4 -5 0 -10
-5 -10 -11z"/>
<path d="M2180 1354 c0 -8 5 -12 10 -9 6 3 10 10 10 16 0 5 -4 9 -10 9 -5 0
-10 -7 -10 -16z"/>
<path d="M2238 1063 c12 -2 32 -2 45 0 12 2 2 4 -23 4 -25 0 -35 -2 -22 -4z"/>
<path d="M2340 1066 c0 -2 11 -6 25 -8 14 -3 25 -1 25 3 0 5 -11 9 -25 9 -14
0 -25 -2 -25 -4z"/>
<path d="M1203 733 c9 -2 23 -2 30 0 6 3 -1 5 -18 5 -16 0 -22 -2 -12 -5z"/>
<path d="M1256 721 c-3 -4 6 -6 19 -3 14 2 25 6 25 8 0 8 -39 4 -44 -5z"/>
<path d="M1325 711 c-3 -5 -1 -12 5 -16 5 -3 10 -1 10 5 0 7 14 9 38 6 29 -4
32 -4 12 3 -34 12 -58 13 -65 2z"/>
<path d="M1275 700 c-3 -6 1 -7 9 -4 18 7 21 14 7 14 -6 0 -13 -4 -16 -10z"/>
<path d="M1650 700 c0 -5 5 -10 11 -10 5 0 7 5 4 10 -3 6 -8 10 -11 10 -2 0
-4 -4 -4 -10z"/>
<path d="M1780 700 c0 -5 5 -10 11 -10 5 0 7 5 4 10 -3 6 -8 10 -11 10 -2 0
-4 -4 -4 -10z"/>
<path d="M1463 693 c9 -2 23 -2 30 0 6 3 -1 5 -18 5 -16 0 -22 -2 -12 -5z"/>
<path d="M1350 666 c0 -14 4 -27 8 -30 5 -3 6 8 4 25 -5 35 -12 38 -12 5z"/>
<path d="M1245 669 c-4 -6 -5 -12 -2 -15 2 -3 7 2 10 11 7 17 1 20 -8 4z"/>
<path d="M1351 574 c0 -11 3 -14 6 -6 3 7 2 16 -1 19 -3 4 -6 -2 -5 -13z"/>
<path d="M1876 595 c-3 -8 -1 -15 4 -15 6 0 10 7 10 15 0 8 -2 15 -4 15 -2 0
-6 -7 -10 -15z"/>
<path d="M1872 550 c0 -14 2 -19 5 -12 2 6 2 18 0 25 -3 6 -5 1 -5 -13z"/>
</g>
</svg>
